<?xml version="1.0" standalone="no"?><svg xmlns="http://www.w3.org/2000/svg" viewBox="0 0 1440 320"><path fill="#ffffff" fill-opacity="1" d="M0,64L30,53.3C60,43,120,21,180,37.3C240,53,300,107,360,122.7C420,139,480,117,540,101.3C600,85,660,75,720,80C780,85,840,107,900,106.7C960,107,1020,85,1080,96C1140,107,1200,149,1260,154.7C1320,160,1380,128,1410,112L1440,96L1440,0L1410,0C1380,0,1320,0,1260,0C1200,0,1140,0,1080,0C1020,0,960,0,900,0C840,0,780,0,720,0C660,0,600,0,540,0C480,0,420,0,360,0C300,0,240,0,180,0C120,0,60,0,30,0L0,0Z"></path></svg>