<?xml version="1.0" standalone="no"?><svg xmlns="http://www.w3.org/2000/svg" viewBox="0 0 1440 320"><path fill="#F2E9E2" fill-opacity="1" d="M0,160L26.7,170.7C53.3,181,107,203,160,192C213.3,181,267,139,320,122.7C373.3,107,427,117,480,112C533.3,107,587,85,640,96C693.3,107,747,149,800,149.3C853.3,149,907,107,960,90.7C1013.3,75,1067,85,1120,80C1173.3,75,1227,53,1280,58.7C1333.3,64,1387,96,1413,112L1440,128L1440,0L1413.3,0C1386.7,0,1333,0,1280,0C1226.7,0,1173,0,1120,0C1066.7,0,1013,0,960,0C906.7,0,853,0,800,0C746.7,0,693,0,640,0C586.7,0,533,0,480,0C426.7,0,373,0,320,0C266.7,0,213,0,160,0C106.7,0,53,0,27,0L0,0Z"></path></svg>